<svg xmlns="http://www.w3.org/2000/svg" viewBox="0 0 64 64">
  <defs>
    <linearGradient id="chrome" gradientUnits="userSpaceOnUse" x1="0" y1="1204" x2="0" y2="3">
      <stop offset="0" stop-color="#ffffff"/>
      <stop offset="0.30" stop-color="#dfe4f5"/>
      <stop offset="0.47" stop-color="#9aa1bd"/>
      <stop offset="0.52" stop-color="#565c78"/>
      <stop offset="0.58" stop-color="#e8ecfb"/>
      <stop offset="0.78" stop-color="#b7bdd6"/>
      <stop offset="1" stop-color="#7c8199"/>
    </linearGradient>
    <filter id="shadow" x="-20%" y="-20%" width="140%" height="140%">
      <feDropShadow dx="0" dy="-60" stdDeviation="25" flood-color="#000000" flood-opacity="0.9"/>
    </filter>
  </defs>
  <rect width="64" height="64" fill="#0d0d15"/>
  <g transform="translate(4.063 47.496) scale(0.02568 -0.02568)">
    <path d="M689 497Q600 497 537 566Q474 636 474 715Q791 716 1110 716L1723 715Q1791 721 1814 794V840Q1814 879 1787 907Q1760 934 1722 934H400Q384 934 374 922Q363 911 363 894V346Q363 315 383 294Q403 272 431 272H1722Q1760 272 1787 300Q1814 327 1814 366V402Q1814 432 1797 457Q1780 481 1753 491Q1738 497 1722 497ZM2085 835Q2085 702 1991 604Q2085 505 2085 372V349Q2085 206 1979 104Q1873 3 1722 3H327Q229 3 160 74Q91 145 91 244V1132Q91 1162 112 1183Q133 1204 162 1204H1722Q1873 1204 1979 1103Q2085 1002 2085 859Z" fill="url(#chrome)" filter="url(#shadow)"/>
  </g>
</svg>
