<?xml version="1.0" encoding="UTF-8"?>
<!DOCTYPE svg PUBLIC "-//W3C//DTD SVG 1.1//EN" "http://www.w3.org/Graphics/SVG/1.1/DTD/svg11.dtd">
<!-- Creator: CorelDRAW 2019 (64-Bit) -->
<svg xmlns="http://www.w3.org/2000/svg" xml:space="preserve" width="210mm" height="297mm" version="1.1" style="shape-rendering:geometricPrecision; text-rendering:geometricPrecision; image-rendering:optimizeQuality; fill-rule:evenodd; clip-rule:evenodd"
viewBox="0 0 21000 29700"
 xmlns:xlink="http://www.w3.org/1999/xlink"
 xmlns:xodm="http://www.corel.com/coreldraw/odm/2003">
 <defs>
  <style type="text/css">
   <![CDATA[
    .fil0 {fill:black;fill-rule:nonzero}
   ]]>
  </style>
 </defs>
 <g id="Слой_x0020_1">
  <metadata id="CorelCorpID_0Corel-Layer"/>
  <path class="fil0" d="M4802.01 18672.49c-752.65,-87.5 -1412.94,-312.73 -1863.38,-635.72 -206.06,-147.71 -510.41,-463.95 -660.01,-685.66 -153.94,-228.2 -357.29,-658.67 -461,-975.71 -99.38,-303.55 -238.45,-985.44 -338.11,-1658.41 -39.7,-266.01 -87.77,-536.05 -106.94,-600.61 -91.28,-302.99 -273.29,-479.07 -586.82,-566.84 -112.07,-31.59 -180.13,-70.21 -237.66,-135.83l-80.47 -91.82 0 -564.14c0,-771.02 -71.56,-703.78 976.79,-917.39 2021.9,-411.56 3745.39,-513.37 5261.48,-310.29 881.19,118.02 1555.79,303.82 2165.3,596.28 515.54,247.1 596.01,260.06 1048.9,169.59 406.43,-81.01 781.8,-81.28 1294.1,-0.26 214.43,34.03 436.95,55.36 494.2,47.52 57.25,-7.56 264.66,-92.62 460.72,-189.03 506.62,-248.99 998.66,-400.49 1773.18,-546.32 1540.39,-289.77 3353.01,-216.31 5712.74,231.97 732.39,139.08 828.8,167.43 915.76,270.87l69.94 82.91 0 563.06c0,562.8 0,563.07 -68.33,644.08 -48.6,58.07 -131.51,102.08 -289.49,154.75 -440.73,146.91 -529.04,311.09 -668.93,1245.76 -222.25,1484.22 -451.53,2146.39 -967.07,2793.45 -494.47,620.59 -1336.77,985.16 -2498,1081.29 -855.53,70.76 -1792.62,-99.1 -2462.1,-446.12 -1058.88,-549.03 -1930.89,-1950.61 -2296,-3690.84 -139.62,-664.08 -140.17,-666.23 -247.1,-784.51 -118.01,-130.72 -290.04,-187.7 -566.04,-187.7 -391.04,0 -574.95,81.3 -688.91,304.36 -30.24,59.41 -101.8,328.39 -158.8,597.36 -261.13,1233.88 -676.2,2168.55 -1292.74,2911.73 -581.17,699.99 -1286.28,1077.52 -2338.96,1251.44 -291.11,48.07 -1032.68,71.56 -1296.25,40.78zm-2182.05 -3727.3c93.43,-56.98 101.27,-82.64 130.17,-427.23 35.1,-419.12 193.08,-753.72 500.4,-1059.15 322.72,-320.83 690.81,-505.82 1243.07,-624.91 251.15,-54.01 383.75,-62.12 1231.18,-75.62l949.79 -15.12 69.67 -65.36c132.87,-124.76 75.89,-346.47 -108.56,-423.71 -138.81,-57.79 -1772.11,-53.48 -2119.13,5.94 -938.16,160.41 -1634.64,581.43 -2026.22,1224.69 -53.74,87.77 -136.91,278.97 -185.26,424.81 -71.83,216.85 -90.46,322.18 -102.34,580.89l-14.58 316.23 95.59 95.6c111.26,111.27 204.7,123.15 336.22,42.94zm9942.07 14.31c106.94,-55.09 139.08,-149.34 139.08,-406.98 0,-418.58 100.73,-702.13 359.72,-1012.7 242.24,-290.3 612.21,-503.92 1098.58,-634.36 477.46,-127.73 687.56,-148.53 1506.37,-148.8 811.24,0 913.32,-13.77 975.98,-130.98 41.32,-77.24 36.18,-225.22 -10.26,-291.39 -81.84,-116.93 -146.64,-123.14 -1126.41,-111.26 -1001.63,12.42 -1128.82,27.28 -1696.75,199.31 -880.92,266.81 -1448.85,825.83 -1608.18,1582.52 -49.69,237.11 -50.77,766.41 -1.35,855.26 70.76,127.74 226.31,170.4 363.22,99.38zm-10763.04 -1933.06c69.68,-77.77 77.51,-103.42 65.08,-211.99 -28.62,-255.74 -316.77,-368.9 -500.94,-196.87 -145.03,135.57 -145.84,298.95 -1.63,442.89 73.73,74 92.9,79.67 219.83,67.51 113.96,-10.79 153.12,-29.16 217.66,-101.54zm17897.36 67.25c85.34,-44.02 161.22,-164.46 161.22,-256.01 0,-159.61 -155.28,-297.06 -335.67,-297.06 -222.26,0 -367.28,294.63 -230.36,468 100.73,127.74 258.44,160.95 404.81,85.07z"/>
 </g>
</svg>
